<?xml version="1.0" encoding="iso-8859-1"?>
<!-- Generator: Adobe Illustrator 19.1.0, SVG Export Plug-In . SVG Version: 6.00 Build 0)  -->
<svg version="1.1" id="Capa_1" xmlns="http://www.w3.org/2000/svg" xmlns:xlink="http://www.w3.org/1999/xlink" x="0px" y="0px"
	 viewBox="0 0 34.055 34.055" style="enable-background:new 0 0 34.055 34.055;" xml:space="preserve">
<g>
	<path style="fill:#010002;" d="M5.653,14.8h22.518c1.264,0,2.294-0.533,2.903-1.5c0.686-1.092,0.745-2.662,0.144-3.91
		c-2.544-5.293-7.486-8.143-14.292-8.24h-0.029c-3.331,0.048-6.243,0.766-8.653,2.132C7.75,3.563,7.577,4.192,7.857,4.686
		c0.281,0.495,0.909,0.669,1.404,0.388c2.102-1.192,4.676-1.819,7.651-1.863c4.162,0.062,9.694,1.341,12.45,7.072
		c0.29,0.605,0.276,1.43-0.033,1.921c-0.227,0.361-0.606,0.536-1.159,0.536H5.653c-0.553,0-0.932-0.175-1.159-0.536
		c-0.309-0.491-0.323-1.316-0.032-1.921c0.246-0.512,0.03-1.128-0.482-1.374C3.468,8.662,2.852,8.878,2.606,9.39
		c-0.6,1.248-0.542,2.818,0.145,3.91C3.359,14.267,4.39,14.8,5.653,14.8z"/>
	<path style="fill:#010002;" d="M5.29,8.105c0.296,0,0.59-0.127,0.794-0.373c0.397-0.479,0.835-0.929,1.3-1.332
		c0.429-0.374,0.475-1.024,0.102-1.454c-0.373-0.43-1.023-0.475-1.453-0.102c-0.55,0.479-1.067,1.008-1.536,1.574
		C4.134,6.857,4.195,7.506,4.633,7.869C4.826,8.027,5.058,8.105,5.29,8.105z"/>
	<path style="fill:#010002;" d="M30.613,19.24H3.212c-1.561,0-2.831,1.27-2.831,2.831c0,1.562,1.27,2.832,2.831,2.832h27.402
		c1.56,0,2.831-1.27,2.831-2.832C33.444,20.51,32.174,19.24,30.613,19.24z M30.613,22.842H3.212c-0.425,0-0.771-0.345-0.771-0.771
		c0-0.425,0.346-0.771,0.771-0.771h27.402c0.425,0,0.771,0.346,0.771,0.771C31.384,22.497,31.038,22.842,30.613,22.842z"/>
	<path style="fill:#010002;" d="M33.045,16.789c-0.436-0.009-0.679-0.164-1.146-0.485c-0.61-0.42-1.443-0.994-2.949-0.994
		c-0.015,0-0.031,0-0.046,0c-1.531,0.012-2.284,0.604-2.834,1.037c-0.391,0.308-0.566,0.448-1.028,0.442
		c-0.433-0.01-0.676-0.165-1.142-0.485c-0.61-0.42-1.443-0.994-2.949-0.994c-0.016,0-0.031,0-0.046,0
		c-1.531,0.012-2.284,0.604-2.833,1.037c-0.383,0.301-0.562,0.442-0.999,0.442c-0.01,0-0.02,0-0.03,0
		c-0.433-0.01-0.676-0.165-1.142-0.485c-0.61-0.42-1.443-0.994-2.949-0.994c-0.015,0-0.03,0-0.046,0
		c-1.531,0.012-2.284,0.604-2.833,1.037c-0.392,0.307-0.566,0.446-1.028,0.442c-0.433-0.01-0.676-0.165-1.142-0.485
		c-0.616-0.424-1.459-0.994-2.995-0.994c-1.531,0.012-2.284,0.604-2.833,1.037c-0.392,0.308-0.572,0.452-1.03,0.442
		C0.482,16.783,0.008,17.235,0,17.804c-0.008,0.568,0.446,1.036,1.015,1.044c1.184,0.012,1.85-0.502,2.332-0.882
		c0.436-0.342,0.75-0.589,1.577-0.595c0.894-0.002,1.294,0.274,1.811,0.63c0.535,0.368,1.201,0.826,2.273,0.848
		c0.003,0,0.005,0,0.008,0c1.194,0.016,1.847-0.503,2.33-0.882c0.435-0.342,0.749-0.589,1.577-0.595
		c0.891-0.002,1.293,0.274,1.811,0.63c0.535,0.368,1.2,0.826,2.272,0.848c0.003,0,0.005,0,0.008,0
		c1.188,0.018,1.847-0.503,2.33-0.882c0.436-0.342,0.75-0.589,1.577-0.595c0.011,0,0.021-0.001,0.032-0.001
		c0.863,0,1.269,0.279,1.779,0.631c0.535,0.368,1.2,0.826,2.273,0.848c0.021,0.001,0.042,0.001,0.063,0.001
		c1.152,0,1.8-0.509,2.275-0.883c0.436-0.342,0.75-0.589,1.577-0.595c0.01,0,0.021-0.001,0.031-0.001
		c0.863,0,1.269,0.279,1.779,0.631c0.535,0.368,1.2,0.826,2.273,0.848c0.566,0.022,1.039-0.44,1.051-1.01
		C34.066,17.271,33.613,16.801,33.045,16.789z"/>
	<path style="fill:#010002;" d="M30.813,25.793H3.012c-0.569,0-1.03,0.461-1.03,1.03v1.979c0,2.262,1.84,4.102,4.102,4.102H27.74
		c2.262,0,4.102-1.841,4.102-4.102v-1.979C31.842,26.255,31.381,25.793,30.813,25.793z M29.783,28.802
		c0,1.126-0.916,2.042-2.042,2.042H6.084c-1.126,0-2.043-0.917-2.043-2.042v-0.949h25.741V28.802z"/>
	<path style="fill:#010002;" d="M11.849,6.633c0-0.611-0.497-1.108-1.107-1.108c-0.611,0-1.107,0.497-1.107,1.108
		c0,0.61,0.496,1.107,1.107,1.107C11.352,7.74,11.849,7.243,11.849,6.633z M10.32,6.633c0-0.232,0.189-0.421,0.421-0.421
		c0.232,0,0.42,0.189,0.42,0.421c0,0.232-0.188,0.421-0.42,0.421C10.509,7.054,10.32,6.865,10.32,6.633z"/>
	<path style="fill:#010002;" d="M9.267,10.282c0,0.611,0.497,1.108,1.108,1.108c0.61,0,1.107-0.496,1.107-1.108
		c0-0.61-0.497-1.107-1.107-1.107C9.764,9.175,9.267,9.672,9.267,10.282z M10.375,9.861c0.232,0,0.421,0.189,0.421,0.421
		c0,0.232-0.189,0.421-0.421,0.421c-0.232,0-0.421-0.189-0.421-0.421C9.954,10.05,10.143,9.861,10.375,9.861z"/>
	<path style="fill:#010002;" d="M16.085,7.549c0-0.61-0.496-1.107-1.107-1.107c-0.611,0-1.108,0.497-1.108,1.107
		c0,0.611,0.497,1.108,1.108,1.108C15.588,8.657,16.085,8.161,16.085,7.549z M14.557,7.549c0-0.232,0.188-0.421,0.421-0.421
		c0.232,0,0.421,0.189,0.421,0.421c0,0.233-0.189,0.421-0.421,0.421C14.745,7.971,14.557,7.782,14.557,7.549z"/>
</g>
<g>
</g>
<g>
</g>
<g>
</g>
<g>
</g>
<g>
</g>
<g>
</g>
<g>
</g>
<g>
</g>
<g>
</g>
<g>
</g>
<g>
</g>
<g>
</g>
<g>
</g>
<g>
</g>
<g>
</g>
</svg>
